<?xml version="1.0" standalone="no"?> <!DOCTYPE svg PUBLIC "-//W3C//DTD SVG 1.0//EN" "http://www.w3.org/TR/2001/REC-SVG-20010904/DTD/svg10.dtd" > <svg xmlns="http://www.w3.org/2000/svg" width="100%" height="100%">
<defs >
<font id="helveticaltstd-light" horiz-adv-x="447" ><font-face
    font-family="Helvetica LT Std Light"
    units-per-em="1000"
    panose-1="2 11 4 3 2 2 2 2 2 4"
    ascent="718"
    descent="-282"
    alphabetic="0" />
<missing-glyph horiz-adv-x="500" d="M0 0V700H500V0H0ZM250 395L420 650H80L250 395ZM280 350L450 95V605L280 350ZM80 50H420L250 305L80 50ZM50 605V95L220 350L50 605Z" />
<glyph unicode=" " glyph-name="space" horiz-adv-x="278" />
<glyph unicode="!" glyph-name="exclam" horiz-adv-x="333" d="M144 181L130 496V720H203V496L189 181H144ZM203 0H130V88H203V0Z" />
<glyph unicode="&quot;" glyph-name="quotedbl" horiz-adv-x="278" d="M57 494V720H109V494H57ZM168 494V720H220V494H168Z" />
<glyph unicode="#" glyph-name="numbersign" horiz-adv-x="556" d="M504 287V228H393L361 0H302L333 228H196L162 0H103L137 228H27V287H146L167 427H55V486H175L207 698H267L235 486H371L402 698H461L430 486H530V427H422L402 287H504ZM363 427H227L205 287H343L363
427Z" />
<glyph unicode="$" glyph-name="dollar" horiz-adv-x="556" d="M255 394V651Q198 651 159 616T120 526Q120 466 153 440T255 394ZM302 322V35Q365 35 409 76T454 180Q454 248 416 277T302 322ZM302 -19V-95H256V-19Q77 -9 42 154Q39 171 37 203H102Q102 135 145
87T255 35V332Q208 343 177 356T115 390T71 444T56 523Q56 605 114 656T256 705V766H302V705Q386 706 440 659T497 529H432Q431 583 394 617T302 651V385Q358 372 392 359T458 323T504 262T518 169Q518 86 453 35T302 -19Z" />
<glyph unicode="%" glyph-name="percent" horiz-adv-x="889" d="M590 331T658 331T773 283T821 166Q821 97 774 49T658 0Q590 0 541 49T492 166Q492 233 541 282ZM657 274Q612 274 581 242T549 164Q549 121 581 89T657 57T732 89T764 166T732 242T657 274ZM398
600T398 532T349 416T232 367T116 415T67 532T115 649T232 698T349 649ZM188 424T232 424T308 456T341 532Q341 576 309 608T232 641T156 609T124 532T156 456ZM668 705L271 -14H219L616 705H668Z" />
<glyph unicode="&amp;" glyph-name="ampersand" horiz-adv-x="667" d="M454 131L249 375Q187 346 148 297T109 190Q109 120 155 78T271 35Q373 35 454 131ZM378 540Q397 583 372 624T293 666Q254 666 226 642T197 580Q197 534 272 445Q302 463 315 471T348 499T378
540ZM307 400L488 186Q518 236 518 326H577Q572 207 527 138L644 0H563L493 85Q447 30 393 6T266 -19Q170 -19 106 40T41 195Q41 271 88 326T213 418Q136 507 136 579Q136 645 182 682T298 720Q364 720 406 680T449 581Q449 547 439 520T405 471T363 435T307 400Z"
/>
<glyph unicode="&apos;" glyph-name="quotesingle" horiz-adv-x="222" d="M85 494V720H137V494H85Z" />
<glyph unicode="(" glyph-name="parenleft" horiz-adv-x="333" d="M226 739H277Q124 517 124 271Q124 37 277 -191H226Q137 -68 96 36T55 276Q55 407 97 515T226 739Z" />
<glyph unicode=")" glyph-name="parenright" horiz-adv-x="333" d="M107 -191H56Q209 31 209 277Q209 511 56 739H107Q196 616 237 512T278 272Q278 141 236 33T107 -191Z" />
<glyph unicode="*" glyph-name="asterisk" horiz-adv-x="389" d="M62 646L173 603V720H215V603L329 645L344 601L230 564L305 458L266 434L192 542L114 436L79 463L156 564L44 604L62 646Z" />
<glyph unicode="+" glyph-name="plus" horiz-adv-x="660" d="M300 280V500H360V280H580V220H360V0H300V220H80V280H300Z" />
<glyph unicode="," glyph-name="comma" horiz-adv-x="278" d="M175 88V-30Q175 -114 102 -137V-100Q136 -79 136 -34V0H102V88H175Z" />
<glyph unicode="-" glyph-name="hyphen" horiz-adv-x="333" d="M40 291H293V229H40V291Z" />
<glyph unicode="." glyph-name="period" horiz-adv-x="278" d="M175 0H102V88H175V0Z" />
<glyph unicode="/" glyph-name="slash" horiz-adv-x="278" d="M288 739L53 -90H-3L232 739H288Z" />
<glyph unicode="0" glyph-name="zero" horiz-adv-x="556" d="M452 347Q452 411 445 460T420 555T366 626T276 651Q103 651 103 340Q103 194 142 117T278 40Q332 40 368 66T422 141T445 238T452 347ZM278 705Q338 705 382 682T452 625T492 539T511 442T516 340Q516
264 506 205T470 94T397 14T278 -14T159 14T85 94T50 207T39 347Q39 406 44 453T64 549T106 631T175 684T278 705Z" />
<glyph unicode="1" glyph-name="one" horiz-adv-x="556" d="M302 0V524H120V566Q158 568 180 571T228 583T269 606T296 644T315 705H366V0H302Z" />
<glyph unicode="2" glyph-name="two" horiz-adv-x="556" d="M137 474H69Q69 578 131 641T298 705Q401 705 458 650T515 510Q515 457 494 414T436 341T363 288T280 241T208 196Q166 164 142 132T116 54H509V0H48Q49 56 60 96T103 172Q136 211 179 244T257 297T329
340T389 383T429 435T445 506Q445 573 401 612T290 651Q222 651 178 599T137 474Z" />
<glyph unicode="3" glyph-name="three" horiz-adv-x="556" d="M221 340V392Q319 391 371 421T423 527Q423 589 381 620T273 651Q206 651 164 609T122 500H58Q58 594 126 658Q178 705 286 705Q374 705 430 661T487 531Q487 417 387 374Q512 335 512 200Q512 110
452 50T285 -14Q161 -14 103 34T34 204H98Q98 125 145 83T273 40Q348 40 399 88T448 199Q445 280 383 313T221 340Z" />
<glyph unicode="4" glyph-name="four" horiz-adv-x="556" d="M358 0V174H36V229L364 698H422V228H520V174H422V0H358ZM358 602L99 228H358V602Z" />
<glyph unicode="5" glyph-name="five" horiz-adv-x="556" d="M35 183H99Q109 113 155 77T273 40Q350 40 396 91T442 220Q442 300 394 349T267 399Q170 399 114 326L61 333L118 698H468V644H172L128 407Q169 434 202 443T283 453Q382 453 444 390T506 220T441 50T283
-14Q50 -14 35 183Z" />
<glyph unicode="6" glyph-name="six" horiz-adv-x="556" d="M503 532H437Q426 588 392 619T303 651Q267 651 238 640T190 612T156 567T133 514T119 453T110 392T105 332Q125 359 137 373T173 406T224 433T290 442Q396 442 455 382T514 215Q514 108 455 47T288
-14Q174 -14 108 66T41 323Q41 377 47 427T72 529T117 619T191 681T297 705Q382 705 437 660T503 532ZM288 388Q216 388 173 338T129 213Q129 145 169 93T289 40Q371 40 410 92T450 217Q450 388 288 388Z" />
<glyph unicode="7" glyph-name="seven" horiz-adv-x="556" d="M59 634V698H508V638Q371 483 300 305T222 0H152Q162 147 243 325T431 634H59Z" />
<glyph unicode="8" glyph-name="eight" horiz-adv-x="556" d="M279 345Q202 345 155 307T108 194Q108 127 156 84T283 40Q354 40 401 84T448 198Q448 269 401 307T279 345ZM276 651Q214 651 174 618T133 524Q133 462 176 431T283 399Q345 399 382 433T419 538Q419
651 276 651ZM167 379Q111 414 90 444T69 533Q69 606 128 657T270 705Q359 705 421 662T483 533Q483 422 387 375Q445 354 478 308T512 200Q512 98 445 42T264 -14Q179 -14 112 41T44 194Q44 258 76 307T167 379Z" />
<glyph unicode="9" glyph-name="nine" horiz-adv-x="556" d="M53 155H118Q141 40 255 40Q303 40 339 61T394 112T427 189T444 271T451 353L449 355Q382 245 259 245Q160 245 101 307T41 472Q41 576 99 640T268 705Q515 705 515 349Q515 175 445 81T258 -14Q172
-14 117 29T53 155ZM268 651Q188 650 147 602T105 470Q105 390 148 345T268 299Q341 299 383 349T426 474Q426 553 384 601T268 651Z" />
<glyph unicode=":" glyph-name="colon" horiz-adv-x="278" d="M175 0H102V88H175V0ZM175 404H102V492H175V404Z" />
<glyph unicode=";" glyph-name="semicolon" horiz-adv-x="278" d="M175 88V-30Q175 -114 102 -137V-100Q136 -79 136 -34V0H102V88H175ZM175 404H102V492H175V404Z" />
<glyph unicode="&lt;" glyph-name="less" horiz-adv-x="660" d="M159 255L580 58V-6L80 229V282L580 505V441L159 255Z" />
<glyph unicode="=" glyph-name="equal" horiz-adv-x="660" d="M580 378V318H80V378H580ZM580 184V124H80V184H580Z" />
<glyph unicode="&gt;" glyph-name="greater" horiz-adv-x="660" d="M580 282V229L80 -6V58L501 255L80 441V505L580 282Z" />
<glyph unicode="?" glyph-name="question" horiz-adv-x="500" d="M274 182H216Q215 247 225 288T271 368Q284 381 315 411T362 458T393 502T408 556Q408 612 366 648T252 685T139 637T99 516H38Q31 614 93 676T254 739Q355 739 413 688T472 551Q472 511 452 476T406
418T347 363T295 301Q274 268 274 182ZM283 0H210V88H283V0Z" />
<glyph unicode="@" glyph-name="at" horiz-adv-x="800" d="M684 167H743Q696 81 608 31T419 -19Q259 -19 150 92T40 363Q40 518 151 628T415 739Q560 739 660 649T760 423Q760 308 686 220T527 131Q498 131 474 144T441 183Q393 133 322 133Q259 133 221 176T183
283Q183 352 213 421T302 538T431 586Q467 586 497 569T543 520L558 566H625L524 264Q518 245 515 233T512 208T519 189T541 183Q601 183 650 263T700 426Q700 544 618 616T417 689Q280 689 190 592T100 356Q100 220 192 126T419 31Q497 31 568 67T684 167ZM337
196Q400 197 451 287T502 454Q502 484 483 505T433 527Q360 527 310 447T259 288Q259 250 279 223T337 196Z" />
<glyph unicode="A" glyph-name="A" horiz-adv-x="667" d="M85 0H15L298 720H375L651 0H581L498 226H170L85 0ZM334 662L193 284H475L334 662Z" />
<glyph unicode="B" glyph-name="B" horiz-adv-x="667" d="M149 344V58H322Q443 58 492 86T542 203Q542 286 490 315T330 344H149ZM149 662V402H321Q423 402 466 436T509 539Q509 607 464 634T306 662H149ZM375 0H81V720H341Q577 720 577 539Q577 469 544 431T462
384V382Q535 371 572 324T610 203Q610 0 375 0Z" />
<glyph unicode="C" glyph-name="C" horiz-adv-x="722" d="M662 511H592Q572 601 516 641T365 681Q242 681 179 591T116 362Q116 311 123 266T149 179T196 106T269 58T371 39Q461 39 519 93T599 237H670Q643 121 568 51T358 -19Q277 -19 216 11T119 94T66 214T48
360Q48 556 139 647T383 739Q496 739 570 680T662 511Z" />
<glyph unicode="D" glyph-name="D" horiz-adv-x="722" d="M327 0H81V720H327Q399 720 451 710T549 666Q613 619 641 534T669 361Q669 183 582 88Q504 0 327 0ZM149 662V58H312Q418 58 481 91Q515 109 540 139T577 208T595 283T601 361Q601 569 477 635Q427 662
312 662H149Z" />
<glyph unicode="E" glyph-name="E" horiz-adv-x="611" d="M570 0H81V720H560V662H149V402H520V344H149V58H570V0Z" />
<glyph unicode="F" glyph-name="F" horiz-adv-x="556" d="M142 0H74V720H538V662H142V402H502V344H142V0Z" />
<glyph unicode="G" glyph-name="G" horiz-adv-x="778" d="M630 314H387V372H695V0H637V123Q597 54 533 18T368 -19Q226 -19 140 79T53 364Q53 531 138 635T386 739Q503 739 583 681T687 511H617Q599 590 537 635T391 681Q254 681 188 589T121 337Q121 212 192
126T382 39Q447 39 506 69T599 165Q628 222 630 314Z" />
<glyph unicode="H" glyph-name="H" horiz-adv-x="722" d="M148 0H80V720H148V411H574V720H642V0H574V353H148V0Z" />
<glyph unicode="I" glyph-name="I" horiz-adv-x="278" d="M173 0H105V720H173V0Z" />
<glyph unicode="J" glyph-name="J" horiz-adv-x="500" d="M22 228H90Q90 195 91 174T99 125T119 82T158 55T220 43Q288 43 317 82T347 199V720H415V197Q415 -19 212 -19Q154 -19 115 0T56 57T30 134T22 228Z" />
<glyph unicode="K" glyph-name="K" horiz-adv-x="667" d="M153 0H85V720H153V347L522 720H599L315 433L649 0H566L266 391L153 278V0Z" />
<glyph unicode="L" glyph-name="L" horiz-adv-x="556" d="M535 0H81V720H149V58H535V0Z" />
<glyph unicode="M" glyph-name="M" horiz-adv-x="833" d="M146 0H78V720H182L418 85H420L652 720H755V0H687V642H685L449 0H385L148 642H146V0Z" />
<glyph unicode="N" glyph-name="N" horiz-adv-x="722" d="M563 0L149 628H147V0H79V720H156L572 91H574V720H642V0H563Z" />
<glyph unicode="O" glyph-name="O" horiz-adv-x="778" d="M53 359Q52 523 140 631T385 739Q547 739 635 632T724 359Q724 196 636 89T388 -19T141 88T53 359ZM389 39Q521 39 588 130T656 359Q656 509 584 595T387 681Q299 681 237 635T148 517T121 359Q121 221
188 130T389 39Z" />
<glyph unicode="P" glyph-name="P" horiz-adv-x="611" d="M146 0H78V720H341Q576 720 576 519Q576 472 560 436T518 379T454 343T380 324T300 318H146V0ZM146 376H302Q406 376 457 407T508 524Q508 662 322 662H146V376Z" />
<glyph unicode="Q" glyph-name="Q" horiz-adv-x="778" d="M611 68L707 -6L669 -52L563 30Q486 -19 383 -19Q223 -19 136 88T48 359Q48 435 69 503T129 624T234 708T380 739Q535 739 627 639T719 359Q719 173 611 68ZM464 181L561 107Q651 193 651 359Q651 515
577 598T382 681Q315 681 263 655T180 582T132 480T116 359Q116 220 183 130T384 39Q456 39 510 71L428 134L464 181Z" />
<glyph unicode="R" glyph-name="R" horiz-adv-x="667" d="M148 385H360Q441 385 490 420T539 528Q539 662 364 662H148V385ZM362 327H148V0H80V720H362Q607 720 607 531Q607 463 580 423T490 355Q520 345 539 325T567 274T578 220T582 160Q584 82 591 50T612 7V0H537Q521
29 514 128T505 239Q494 292 459 309T362 327Z" />
<glyph unicode="S" glyph-name="S" horiz-adv-x="611" d="M43 215H109Q124 39 316 39Q407 39 453 81T499 188Q499 233 475 263T412 307T327 333T233 357T147 390T84 449T60 546Q60 626 124 682T304 739Q420 739 483 678T546 524H481Q481 602 430 641T304 681Q208
681 163 633T128 522Q134 485 162 461T229 424T314 402T404 380T485 347T544 287T567 191Q567 92 498 37T304 -19Q187 -19 115 41T43 215Z" />
<glyph unicode="T" glyph-name="T" horiz-adv-x="556" d="M16 662V720H540V662H312V0H244V662H16Z" />
<glyph unicode="U" glyph-name="U" horiz-adv-x="722" d="M82 271V720H150V291Q150 158 200 99T361 39Q475 39 523 100T572 291V720H640V271Q640 130 570 56T361 -19Q222 -19 152 56T82 271Z" />
<glyph unicode="V" glyph-name="V" horiz-adv-x="611" d="M268 0L18 720H89L306 80L522 720H593L343 0H268Z" />
<glyph unicode="W" glyph-name="W" horiz-adv-x="889" d="M482 720L646 96H648L805 720H875L686 0H611L444 636H442L275 0H200L14 720H82L237 96H239L406 720H482Z" />
<glyph unicode="X" glyph-name="X" horiz-adv-x="611" d="M514 0L304 318L95 0H18L266 370L28 720H107L304 417L502 720H581L345 370L592 0H514Z" />
<glyph unicode="Y" glyph-name="Y" horiz-adv-x="611" d="M90 720L302 373L519 720H598L337 314V0H269V309L12 720H90Z" />
<glyph unicode="Z" glyph-name="Z" horiz-adv-x="611" d="M579 0H31V57L492 662H70V720H576V663L115 58H579V0Z" />
<glyph unicode="[" glyph-name="bracketleft" horiz-adv-x="333" d="M280 -191H91V739H282V689H155V-141H280V-191Z" />
<glyph unicode="\" glyph-name="backslash" horiz-adv-x="278" d="M225 -90L-10 739H46L281 -90H225Z" />
<glyph unicode="]" glyph-name="bracketright" horiz-adv-x="333" d="M242 739V-191H51V-141H178V689H53V739H242Z" />
<glyph unicode="^" glyph-name="asciicircum" horiz-adv-x="660" d="M131 245H73L303 698H355L586 245H529L328 637L131 245Z" />
<glyph unicode="_" glyph-name="underscore" horiz-adv-x="500" d="M0 -75H500V-125H0V-75Z" />
<glyph unicode="`" glyph-name="grave" horiz-adv-x="333" d="M183 574L45 713H123L234 574H183Z" />
<glyph unicode="a" glyph-name="a" horiz-adv-x="556" d="M411 191V272Q360 251 256 243Q110 232 110 133Q110 88 143 64T222 40Q300 40 355 78T411 191ZM227 291L310 302Q362 307 389 319Q411 329 411 373Q411 478 282 478Q215 478 177 452T131 361H70Q76 448
134 490T283 532Q369 532 420 494T471 371V89Q471 53 483 45T534 49V2Q504 -8 487 -8Q474 -8 460 -5Q414 2 412 72Q335 -14 219 -14Q146 -14 96 25T46 135Q46 267 227 291Z" />
<glyph unicode="b" glyph-name="b" horiz-adv-x="611" d="M139 261Q139 164 185 102T314 40Q392 40 441 94T491 243Q495 345 449 411T314 478Q235 478 187 415T139 261ZM139 91V0H79V720H139V435Q167 481 217 506T324 532Q436 532 495 454T555 258Q555 135 498
61T321 -14Q269 -14 218 14T141 91H139Z" />
<glyph unicode="c" glyph-name="c" horiz-adv-x="556" d="M500 355H439Q405 478 285 478Q199 478 155 413T111 258Q111 167 154 104T285 40Q351 40 392 77T444 179H508Q492 89 436 38T285 -14Q167 -14 107 61T47 258Q47 372 110 452T285 532Q473 532 500 355Z" />
<glyph unicode="d" glyph-name="d" horiz-adv-x="611" d="M472 261Q472 352 424 415T297 478Q208 478 162 412T120 243Q121 148 170 94T297 40Q379 40 425 102T472 261ZM472 435V720H532V0H472V91H470Q445 42 394 14T290 -14Q171 -14 114 60T56 258Q56 375 115
453T287 532Q343 532 393 507T472 435Z" />
<glyph unicode="e" glyph-name="e" horiz-adv-x="556" d="M109 295H447Q447 374 404 426T283 478Q208 478 164 426T109 295ZM511 245H109Q108 157 154 99T283 40Q342 40 384 71T440 159H507Q454 -14 283 -14Q164 -14 105 60T45 257Q45 374 110 453T283 532T451
458T511 245Z" />
<glyph unicode="f" glyph-name="f" horiz-adv-x="278" d="M97 468H20V518H97V600Q97 734 207 734Q236 734 257 730V675Q237 680 221 680Q199 680 185 672T166 648T159 618T157 582V518H257V468H157V0H97V468Z" />
<glyph unicode="g" glyph-name="g" horiz-adv-x="611" d="M472 257Q472 354 426 416T297 478Q219 478 170 424T120 275Q116 173 162 107T297 40Q376 40 424 103T472 257ZM472 427V518H532V50Q532 -6 522 -50T485 -132T410 -191T289 -212Q185 -212 130 -166T70
-63H134Q156 -158 289 -158Q336 -158 371 -144T425 -108T456 -53T470 11T472 83Q444 37 394 12T287 -14Q175 -14 116 64T56 260Q56 383 113 457T290 532Q342 532 393 504T470 427H472Z" />
<glyph unicode="h" glyph-name="h" horiz-adv-x="556" d="M132 0H72V720H132V446Q172 489 210 510T299 532Q406 532 457 458Q483 420 483 339V0H423V338Q423 409 392 443T289 478Q236 478 198 449T145 377Q132 341 132 279V0Z" />
<glyph unicode="i" glyph-name="i" horiz-adv-x="222" d="M141 0H81V518H141V0ZM144 631H78V720H144V631Z" />
<glyph unicode="j" glyph-name="j" horiz-adv-x="222" d="M88 518H148V-69Q148 -144 130 -174T44 -204Q22 -204 5 -200V-147Q54 -153 71 -137T88 -77V518ZM151 720V631H85V720H151Z" />
<glyph unicode="k" glyph-name="k" horiz-adv-x="500" d="M128 0H68V720H128V272L382 518H464L270 331L487 0H420L226 289L128 196V0Z" />
<glyph unicode="l" glyph-name="l" horiz-adv-x="222" d="M141 0H81V720H141V0Z" />
<glyph unicode="m" glyph-name="m" horiz-adv-x="833" d="M124 279V0H64V518H124V440H126Q149 484 192 508T286 532Q352 532 385 506T438 432Q489 532 607 532Q658 532 691 516T741 468T762 404T768 327V0H708V358Q708 417 683 447T597 478Q524 478 480 419Q446
375 446 279V0H386V358Q386 417 361 447T275 478Q202 478 158 419Q124 375 124 279Z" />
<glyph unicode="n" glyph-name="n" horiz-adv-x="556" d="M132 279V0H72V518H132V446Q172 489 210 510T299 532Q406 532 457 458Q483 420 483 339V0H423V338Q423 409 392 443T289 478Q236 478 198 449T145 377Q132 341 132 279Z" />
<glyph unicode="o" glyph-name="o" horiz-adv-x="556" d="M278 -14Q173 -12 106 58T38 259Q38 378 100 455T278 532Q395 532 456 456T518 259Q518 136 453 61T278 -14ZM454 259Q453 358 411 418T278 478Q190 478 146 415T102 259Q102 160 148 100T278 40Q366 40
410 103T454 259Z" />
<glyph unicode="p" glyph-name="p" horiz-adv-x="611" d="M139 257Q139 166 187 103T314 40Q403 40 449 106T491 275Q490 370 441 424T314 478Q232 478 186 416T139 257ZM139 83V-204H79V518H139V427H141Q166 476 217 504T321 532Q440 532 497 458T555 260Q555
143 496 65T324 -14Q268 -14 218 11T139 83Z" />
<glyph unicode="q" glyph-name="q" horiz-adv-x="611" d="M472 261Q472 352 424 415T297 478Q208 478 162 412T120 243Q121 148 170 94T297 40Q379 40 425 102T472 261ZM472 427V518H532V-204H472V83Q444 37 394 12T287 -14Q175 -14 116 64T56 260Q56 383 113
457T290 532Q342 532 393 504T470 427H472Z" />
<glyph unicode="r" glyph-name="r" horiz-adv-x="333" d="M135 254V0H75V518H135V421H137Q161 482 200 507T306 532V467Q135 471 135 254Z" />
<glyph unicode="s" glyph-name="s" horiz-adv-x="500" d="M46 162H107Q121 96 157 68T262 40Q324 40 357 68T390 136Q390 177 356 199T273 230T175 251T92 295T58 384Q58 450 106 491T240 532Q419 532 440 369H379Q364 478 239 478Q183 478 153 454T122 389Q122
356 146 335T208 306T288 285T368 260T429 215T454 137Q454 65 396 26T243 -14Q154 -14 102 36T46 162Z" />
<glyph unicode="t" glyph-name="t" horiz-adv-x="278" d="M254 47V-2Q198 -14 185 -14Q139 -14 116 9T93 89V468H20V518H93V662H153V518H250V468H153V113Q153 70 161 55T205 40Q226 40 254 47Z" />
<glyph unicode="u" glyph-name="u" horiz-adv-x="556" d="M423 236V518H483V0H423V72Q400 46 385 32T334 2T256 -14Q72 -14 72 177V518H132V178Q132 40 265 40Q338 40 380 94T423 236Z" />
<glyph unicode="v" glyph-name="v" horiz-adv-x="500" d="M215 0L17 518H82L250 74L418 518H483L282 0H215Z" />
<glyph unicode="w" glyph-name="w" horiz-adv-x="722" d="M396 518L510 80L646 518H707L539 0H475L362 435H360L245 0H173L15 518H75L209 76L329 518H396Z" />
<glyph unicode="x" glyph-name="x" horiz-adv-x="500" d="M409 0L252 224L91 0H18L217 268L34 518H108L251 312L398 518H474L287 268L481 0H409Z" />
<glyph unicode="y" glyph-name="y" horiz-adv-x="500" d="M68 -197V-141Q100 -147 118 -147Q149 -147 167 -124T200 -57T219 -4L18 518H85L251 73L417 518H482L289 7Q271 -41 261 -66T235 -122T204 -168T170 -193T125 -204Q96 -204 68 -197Z" />
<glyph unicode="z" glyph-name="z" horiz-adv-x="500" d="M467 0H33V53L377 468H56V518H454V465L110 50H467V0Z" />
<glyph unicode="{" glyph-name="braceleft" horiz-adv-x="333" d="M127 395V577Q127 668 157 704T272 737Q191 709 191 616V424Q191 359 175 324T109 275V273Q156 262 173 230T191 138V-68Q191 -119 211 -147T279 -189V-191Q193 -192 160 -159T127 -47V157Q127
207 110 235T45 273V275Q97 290 112 315T127 395Z" />
<glyph unicode="|" glyph-name="bar" horiz-adv-x="222" d="M81 750H141V-250H81V750Z" />
<glyph unicode="}" glyph-name="braceright" horiz-adv-x="333" d="M203 599V395Q203 345 220 317T285 279V277Q233 262 218 237T203 157V-25Q203 -116 173 -152T58 -185Q139 -157 139 -64V128Q139 193 155 228T221 277V279Q174 290 157 322T139 414V620Q139 671
119 699T51 741V743Q137 744 170 711T203 599Z" />
<glyph unicode="~" glyph-name="asciitilde" horiz-adv-x="660" d="M221 324Q260 324 338 288Q418 252 441 252Q494 252 540 339L580 305Q523 196 440 196Q407 196 305 238Q300 240 281 249T248 263T221 268Q202 268 186 260T155 235T133 206T113 174L80 221Q100
251 114 268T158 305T221 324Z" />
</font>
</defs>
</svg>
